<svg width="75" height="75" viewBox="0 0 75 75" fill="none" xmlns="http://www.w3.org/2000/svg">
<g clip-path="url(#clip0_116_4)">
<path d="M39.3321 30.1286L43.9875 25.4732C45.3268 26.7696 46.4893 27.9054 46.7946 28.2107C49.0018 30.4232 50.5018 33.1339 51.3536 36.0696L51.4821 36.5464C51.6857 37.3232 51.8196 38.0196 51.9321 38.6946C52.05 39.5464 52.1786 40.3982 52.1786 41.2714C52.1786 41.6143 52.1196 41.9518 52.0768 42.2893L52.0232 42.7446C51.9589 43.5321 51.9321 44.3304 51.7714 45.0911C51.0482 48.5732 49.35 51.7714 46.7946 54.3321L31.5321 69.6C24.3268 76.8054 12.6054 76.8054 5.39464 69.6C1.8 65.9946 0 61.2643 0 56.5339C0 51.8036 1.8 47.0679 5.39464 43.4679L14.8286 34.0393C14.8661 36.7554 15.3857 39.375 16.2 41.8929L10.0125 48.0804C7.76786 50.325 6.53571 53.325 6.53571 56.5339C6.53571 59.7482 7.76786 62.7482 10.0125 64.9875C14.6732 69.6482 22.2536 69.6536 26.9143 64.9929L37.7518 54.1554L42.1768 49.725C43.3125 48.5946 44.1857 47.2661 44.775 45.8143C45.3536 44.3946 45.6589 42.8571 45.6589 41.2714C45.6589 38.0571 44.4214 35.0571 42.1768 32.8179C41.8446 32.4911 40.6768 31.3768 39.3321 30.1286ZM43.4839 5.38928L28.2214 20.6518C24.75 24.1232 22.8321 28.7625 22.8321 33.7125C22.8321 38.6625 24.75 43.3018 28.2161 46.7786C28.5268 47.0786 29.6893 48.2196 31.0286 49.5107L35.6839 44.8554C34.3393 43.6071 33.1714 42.4982 32.8393 42.1661C30.5946 39.9321 29.3571 36.9268 29.3571 33.7125C29.3571 30.5036 30.5946 27.4982 32.8393 25.2589L48.1018 9.99643C52.7625 5.33571 60.3429 5.34106 65.0036 10.0018C67.2482 12.2411 68.4804 15.2411 68.4804 18.4554C68.4804 21.6643 67.2482 24.6643 65.0036 26.9036L58.8107 33.0964C58.8911 33.3429 58.9982 33.5732 59.0679 33.825L59.25 34.4946C59.5339 35.5607 59.7161 36.4929 59.8607 37.4036C60.0536 38.7589 60.1768 39.8411 60.1982 40.9232L69.6161 31.5107C73.0821 28.0393 75 23.4 75 18.45C75 13.5 73.0821 8.86071 69.6161 5.38928C66.1393 1.91249 61.5 -5.39037e-06 56.55 -5.39037e-06C51.6 -5.39037e-06 46.9607 1.91249 43.4839 5.38928Z" fill="black"/>
</g>
<defs>
<clipPath id="clip0_116_4">
<rect width="75" height="75" fill="white" transform="matrix(0 -1 1 0 0 75)"/>
</clipPath>
</defs>
</svg>
