<svg width="245" height="163" viewBox="0 0 245 163" fill="none" xmlns="http://www.w3.org/2000/svg">
<path d="M108 0C128.942 0 146.873 12.8769 154.317 31.1436C157.759 30.3945 161.334 30 165 30C187.895 30 207.196 45.3886 213.124 66.3867C231.779 73.6452 245 91.7783 245 113C245 140.614 222.614 163 195 163C180.599 163 167.624 156.909 158.5 147.167C149.376 156.909 136.401 163 122 163C107.861 163 95.0945 157.129 86 147.694C76.9055 157.129 64.1392 163 50 163C22.3858 163 0 140.614 0 113C0 95.9048 8.58095 80.8157 21.6689 71.7988C25.0864 51.0875 41.2325 34.6692 61.8037 30.8447C69.3208 12.7363 87.1718 0 108 0Z" fill="url(#paint0_linear_101_49)"/>
<defs>
<linearGradient id="paint0_linear_101_49" x1="122.5" y1="0" x2="122.5" y2="163" gradientUnits="userSpaceOnUse">
<stop stop-color="#D9D9D9"/>
<stop offset="1" stop-color="#939393"/>
</linearGradient>
</defs>
</svg>
