<svg width="72" height="100" viewBox="0 0 72 100" fill="none" xmlns="http://www.w3.org/2000/svg">
<path d="M64.2857 37.6929V28.5714C64.2857 12.7929 51.4929 0 35.7143 0C19.9357 0 7.14286 12.7929 7.14286 28.5714V37.6929C2.89286 40.1714 0 44.7286 0 50V85.7143C0 93.6071 6.39286 100 14.2857 100H57.1429C65.0357 100 71.4286 93.6071 71.4286 85.7143V50C71.4286 44.7286 68.5357 40.1714 64.2857 37.6929ZM14.2857 28.5714C14.2857 16.7571 23.9 7.14286 35.7143 7.14286C47.5286 7.14286 57.1429 16.7571 57.1429 28.5714V35.7143H14.2857V28.5714Z" fill="#FF0000"/>
</svg>
